<svg xmlns="http://www.w3.org/2000/svg" viewBox="0 0 512 512" role="img" aria-labelledby="title desc">
  <title id="title">SkyCast Weather app icon</title>
  <desc id="desc">A rounded blue weather icon with a sun, cloud, and rain drops.</desc>
  <defs>
    <linearGradient id="sky" x1="88" x2="424" y1="64" y2="448" gradientUnits="userSpaceOnUse">
      <stop offset="0" stop-color="#38bdf8" />
      <stop offset="0.56" stop-color="#2563eb" />
      <stop offset="1" stop-color="#0f766e" />
    </linearGradient>
    <linearGradient id="cloud" x1="130" x2="380" y1="210" y2="340" gradientUnits="userSpaceOnUse">
      <stop offset="0" stop-color="#ffffff" />
      <stop offset="1" stop-color="#e0f2fe" />
    </linearGradient>
    <filter id="shadow" x="-20%" y="-20%" width="140%" height="150%" color-interpolation-filters="sRGB">
      <feDropShadow dx="0" dy="18" stdDeviation="18" flood-color="#0f172a" flood-opacity="0.24" />
    </filter>
  </defs>

  <rect width="512" height="512" rx="112" fill="url(#sky)" />
  <path
    fill="#facc15"
    d="M354 112a58 58 0 1 0 0 116 58 58 0 0 0 0-116Zm0-46c9 0 16 7 16 16v18a16 16 0 1 1-32 0V82c0-9 7-16 16-16Zm0 244c9 0 16 7 16 16v18a16 16 0 1 1-32 0v-18c0-9 7-16 16-16ZM230 174c0-9 7-16 16-16h18a16 16 0 1 1 0 32h-18c-9 0-16-7-16-16Zm214 0c0-9 7-16 16-16h18a16 16 0 1 1 0 32h-18c-9 0-16-7-16-16ZM266 76c6-6 16-6 23 0l13 13a16 16 0 1 1-23 23l-13-13c-6-7-6-17 0-23Zm153 153c6-6 16-6 23 0l13 13a16 16 0 1 1-23 23l-13-13c-6-7-6-17 0-23Zm36-153c6 6 6 16 0 23l-13 13a16 16 0 1 1-23-23l13-13c7-6 17-6 23 0Z"
    opacity="0.96"
  />
  <path
    fill="url(#cloud)"
    filter="url(#shadow)"
    d="M177 332h178c39 0 71-31 71-70s-32-70-71-70c-8 0-16 1-24 4-21-41-64-67-111-67-61 0-113 44-123 103-39 7-69 41-69 82 0 46 37 83 83 83h66c-15-14-24-34-24-56 0-3 0-6 1-9Z"
  />
  <path
    fill="#bfdbfe"
    d="M188 348h167c23 0 42-18 42-41s-19-42-42-42c-9 0-18 3-25 8-12-29-40-49-73-49-42 0-77 33-79 75h10c13 0 24 11 24 24s-11 25-24 25Z"
    opacity="0.5"
  />
  <path
    fill="none"
    stroke="#bae6fd"
    stroke-linecap="round"
    stroke-width="24"
    d="M171 388v28M245 388v28M319 388v28"
  />
</svg>
